<?xml version="1.0" encoding="UTF-8"?>
<svg id="Calque_1" data-name="Calque 1" xmlns="http://www.w3.org/2000/svg" xmlns:xlink="http://www.w3.org/1999/xlink" viewBox="0 0 200 200">
  <defs>
    <style>
      .cls-1 {
        mask: url(#mask);
      }

      .cls-2 {
        fill: #ff8000;
      }

      .cls-3 {
        fill: #ffc336;
      }

      .cls-4 {
        fill: #fff;
      }
    </style>
    <mask id="mask" x="0" y="0" width="200" height="200" maskUnits="userSpaceOnUse">
      <rect class="cls-4" width="200" height="200" rx="25" ry="25"/>
    </mask>
  </defs>
  <g class="cls-1">
    <g>
      <rect class="cls-4" x="66.67" y="66.67" width="66.67" height="66.67"/>
      <polygon class="cls-2" points="133.33 63.91 133.33 133.33 61.8 133.33 61.8 200 133.33 200 137.33 200 200 200 200 137.23 200 133.33 200 63.91 133.33 63.91"/>
      <polygon class="cls-3" points="133.33 0 129.3 0 66.67 0 61.8 0 0 0 0 61.7 0 66.67 0 127.7 0 133.33 0 200 66.67 200 66.67 133.33 66.67 127.7 66.67 66.67 129.3 66.67 133.33 66.67 200 66.67 200 0 133.33 0"/>
    </g>
  </g>
</svg>